<?xml version="1.0" encoding="utf-8"?>
<svg version="1.1" xmlns="http://www.w3.org/2000/svg" xmlns:xlink="http://www.w3.org/1999/xlink" xml:space="preserve" viewBox="0 0 202.14 40">
<style type="text/css">
  path { fill: #003556; }
</style>
<path d="M198.57,22.09c0.8-1.25,2.86-0.38,3.44,0.63c0.06-0.68-0.24-1.37-0.67-1.89c-0.22-0.26-0.47-0.46-0.76-0.65
  c-0.18-0.12-0.76-0.27-0.87-0.41c-0.12-0.15-0.03-0.79-0.06-1.02c-0.05-0.4-0.13-0.8-0.25-1.19c-0.18-0.58-0.45-1.14-0.82-1.63
  c0.79,0.68,1.7-0.23,2.6,0.11c-0.45-0.34-0.68-1.02-1.36-1.02c1.43,0,1.71-2.03,0.42-2.53c-0.4-0.16-1.56,0.18-1.06,0.79
  c0.42,0.51,0.45-0.39,0.78-0.34c0.73,0.12,0.27,1.14-0.31,1.17c-0.48,0.03-0.91-0.46-1.23-0.76c-0.97-0.9-1.55-1.93-2.34-2.97
  c0.76,0.46,1.32,1.24,2.23,1.44c0.8,0.18,1.58-0.21,1.63-1.1c0.09-1.56-2.48-2.19-1.82-0.23c0.21-0.32,0.99-1.04,1.09-0.14
  c0.06,0.54-0.57,0.67-0.94,0.5c-0.91-0.41-1.74-1.76-2.39-2.5c-1.57-1.78-3.27-3.57-5.68-4.09c0.34-0.11,0.57-0.45,0.91-0.34
  c-0.64-0.81-0.36-2.02,0.03-2.87c0.03-0.06,0.6-1.06,0.63-1.05c-0.26-0.09-1.05,0.73-1.22,0.89c-0.53,0.49-1,1.06-1.41,1.65
  c-0.21,0.3-0.4,0.61-0.56,0.94c-0.25,0.55-0.17,0.68-0.81,0.63c-0.63-0.05-1.23-0.24-1.85-0.28c0.11-0.97,0.56-1.57,0.84-2.44
  c0.22-0.67-0.29-0.94-0.87-1.18c-0.78-0.31-1,0.06-1.31,0.74c-0.2,0.45-0.57,0.68-0.79,1.09c-0.92-1.05-3.89-1.63-4.75-0.46
  c-0.55,0.74-0.2,2.18,0.92,1.96c0.75-0.15,1.21-1.45,0.12-1.42c0.6,0.65-0.75,1.16-0.73,0.29c0.02-1.21,1.91-0.59,2.49-0.33
  c1.19,0.53,1.3,1.45,1.36,2.65c0.02,0.41,0.06,0.83,0.03,1.24c-0.02,0.4-0.19,0.55-0.29,0.89c-0.11,0.4,0.01,0.6,0.48,0.84
  c1.12,0.58,1.69-0.11,1.96-1.1c0.05-0.19,0.12-1.18,0.27-1.22c0.09-0.02,1.61,1.06,1.65,1.21c0.06,0.22-0.94,1.28-1.1,1.53
  c-0.32,0.51-0.64,1.05-0.81,1.64c-0.03,0.09-0.28,1.18-0.14,1.23c0.26,0.1,0.88-1.39,1.35-1.14c0.05,0.03,1.46,2.37,1.76,2.54
  c-0.23-0.02-1.54-0.57-1.67-0.6c-0.07-0.02-1.64-0.27-1.68-0.06c0.2,0.09,2.29,0.63,2.22,0.79c-0.05,0.12-1.32-0.04-1.48-0.04
  c-0.59,0-2.03-0.18-2.47,0.28c-0.12,0.12-0.11,0.01-0.06,0.1c0.06,0.1,1.78-0.05,2.02-0.02c1.09,0.12,2.21,0.44,3.17,1
  c0.65,0.38,1.75,1.16,1.98,1.93c0.05,0.17,0.08,0.25,0.1,0.28c-0.03-0.04-0.11-0.1-0.25,0.05c-0.22,0.25-0.66,0.33-0.43,0.82
  c0.15,0.31,0.74,0.47,1.04,0.56c-0.84,0.88-2.22,2.16-1.36,3.47c0.69,1.06,2.01,1.55,3.04,2.17c-0.52,0.22-0.94,0.67-1.4,0.99
  c-0.23,0.16-0.52,0.37-0.78,0.49c-0.32,0.14-0.48,0.09-0.8,0.14c-0.43,0.07-0.5,0.07-0.61,0.61c-0.13,0.62,0.1,0.94,0.72,0.68
  c-0.63,2.96-3.59,1.06-4.83,2.05c0.58,0.29,0.87,0.57,0.38,1.1c-0.31,0.34-0.83,0.59-1.3,0.53c-0.36-0.04-0.79-0.27-0.77-0.69
  c0.02-0.59,0.79-0.47,0.51,0.02c1.03,0,0.14-1.58-0.84-0.65c-0.85,0.8,0.04,1.48,0.73,1.9c-0.45-0.11-0.91,0.23-1.36,0.23
  c0.11,0.34,0.34,0.45,0.57,0.68c-0.23-0.09-0.47-0.17-0.72-0.18c0.12,0,0.49,0.59,0.49,0.75c-0.24-0.24-0.49-0.44-0.85-0.45
  c0.12,0.01,0.35,0.46,0.4,0.56c-0.04-0.02-1.06-0.39-1.08-0.26c-0.03,0.15,0.5,0.41,0.44,0.57c-0.05,0.14-0.73,0.19-0.83,0.2
  c-0.61,0.09-1.65,0.17-1.82-0.65c-0.06-0.3,0.03-0.59,0.32-0.74c0.82-0.43,1.25,1.03,0.25,0.67c0.29,0.59,1.13,0.75,1.24-0.07
  c0.05-0.4-0.22-0.91-0.54-1.13c0.49-0.59,1.26-1.47,0.4-2.12c-0.7-0.52-1.72-0.11-1.5,0.82c0.44-1.29,2.06-0.42,1.28,0.25
  c-0.45,0.38-1.67,0.24-2.21,0.18c-0.33-0.03-0.6-0.08-0.85-0.31c-0.16-0.15-0.23-0.47-0.4-0.53c-0.02-0.01-0.87,0.26-0.86,0.14
  c0.14-0.09,0.88-0.61,0.81-0.83c-0.01-0.05-0.86-0.26-0.95-0.3c-0.62-0.28-1.04-0.71-1.56-1.13c-0.29-0.24-0.6-0.21-0.86-0.38
  c-0.21-0.14-0.3-0.57-0.43-0.84c-0.12-0.24-0.32-0.4-0.19-0.57c0.07-0.09,0.41,0.01,0.47-0.13c0.05-0.12-0.6-0.65-0.67-0.74
  c-0.41-0.52-0.85-2.04,0.09-2.35c0.78-0.26,0.98,0.93,0.27,0.85c-0.21-0.02-0.29-0.55-0.32-0.14c-0.07,1.06,1.26,0.48,1.38-0.25
  c0.2-1.25-1.32-1.55-2.08-0.85c-0.11,0.1-0.37,0.6-0.47,0.6c-0.22,0-0.42-1.04-0.43-1.15c1.12,0.97,2.06-1.3,0.99-1.32
  c-0.17,0-0.68,0.33-0.48,0.56c0.01,0.01,0.17-0.18,0.21-0.14c0.1,0.09,0.5,0.14,0.2,0.43c-0.18,0.17-0.48,0.03-0.61-0.11
  c-0.6-0.64,0.26-1.7,0.67-2.17c0.75-0.83,1.92-1.35,2.02-2.59c-0.45,0.45-1.5,0.58-1.95,1.15c0-0.86,0.38-1.74,1.06-2.28
  c0.69-0.56,1.25-0.46,2.06-0.41c1.03,0.06,1.68-0.84,2.36-1.48c0.43-0.41,0.86-0.8,1.33-1.17c0.67-0.52,0.33-0.33,0.33-1.01
  c1.36,0.23,1.7,1.58,2.38,2.72c0-0.9-0.26-1.75-0.78-2.48c-0.06,0.1,1.5,0.88,1.72,0.93c0.85,0.2,1.78-0.02,2.11-0.9
  c0.59-1.54-1.91-2.6-2-1.1c-0.03,0.58,0.86,1.03,0.9,0.58c0.01-0.08-0.36-0.19-0.27-0.45c0.2-0.55,0.69-0.01,0.72,0.31
  c0.1,1.18-1.34,0.89-1.99,0.58c-1.04-0.51-1.79-1.48-2.86-1.92c-0.46-0.19-0.96-0.26-1.43-0.39c0.01-0.1,0.58-0.13,0.54-0.32
  c-0.04-0.2-0.63,0-0.74-0.09c-0.01-0.01-0.13-0.83-0.27-0.73c0.01-0.05,0.9,0.07,0.97,0.11c0.21,0.11,0.32,0.41,0.49,0.6
  c0.7,0.81,3.62,1.79,3.78,0c0.07-0.78-0.86-1.6-1.61-1.17c-0.45,0.26-0.51,1.11,0.17,1.08c0.28-0.01,0.23-0.09,0.27-0.15
  c0.02-0.03-0.13-0.24-0.07-0.33c0.18-0.29,0.57-0.1,0.63,0.2c0.31,1.53-3.04,0.34-2.69-0.33c0,0.01,0.53-0.07,0.56-0.08
  c0.36-0.14,0.59-0.5,0.94-0.66c0.38-0.17,0.8-0.14,1.2-0.09c0.17,0.02,0.68,0.21,0.82,0.12c0.21-0.14,0.11-0.77,0.12-0.98
  c0.04-0.8,0.1-1.08-0.75-0.81c-0.4,0.13-0.75,0.38-1.19,0.37c-0.41-0.01-0.7-0.26-1.05-0.42c-0.5-0.23-0.96-0.28-1.51-0.16
  c-0.21,0.04-0.63,0.29-0.84,0.25c-0.09-0.02-0.17,0.02-0.23-0.03c0.16,0.13,0.02-0.58-0.07-0.62c0.16-0.13,1.07-0.64,1-0.75
  c-0.12-0.2-0.98,0.28-1.03,0.19c-0.02-0.04,0.82-0.7,0.81-0.71c-0.14-0.08-1.02,0.3-1.06,0.23c-0.04-0.07,0.8-0.52,0.66-0.65
  c-0.19-0.17-1.69,0.62-1.67,1.04c0.01,0.25,0.38,0.38,0.41,0.59c0.01,0.05-0.23,0.5-0.22,0.49c-0.04,0.04-0.06,0.05-0.06,0.07
  c-0.02-0.01-0.04-0.02-0.09-0.02c-0.1-0.01-0.33-0.28-0.42-0.33c-0.28-0.15-0.63-0.21-0.95-0.22c-0.7-0.01-1.37,0.23-1.93,0.64
  c0.01,0-0.41,0.37-0.53,0.45c0.09-0.2,0.06-1.19,0.07-1.21c0.07-0.17,0.88-0.43,0.73-0.72c-0.11-0.21-1.03,0.48-1.14,0.42
  c-0.02-0.01,0.87-0.73,0.78-0.86c-0.15-0.22-1.02,0.51-1.11,0.43c-0.05-0.04,0.84-0.84,0.65-1c-0.14-0.12-1.11,0.39-1.27,0.49
  c-0.3,0.19-0.75,0.51-0.69,0.92c0.06,0.45,1.21,0.69,1.19,0.89c0.01-0.08-0.76,0.65-0.78,0.67c-0.21,0.23,0.18,0.2-0.09,0.27
  c-0.11,0.04-0.46-0.14-0.59-0.16c-0.5-0.11-1.1-0.17-1.58,0.01c-0.83,0.31-1.08,1.45-0.29,2c-0.98,0.64-1.88,1.41-2.61,2.33
  c-0.36,0.46-0.68,0.95-0.95,1.46c-0.28,0.54-0.4,1.18-0.68,1.7c-0.18,0.33-1.51,1.01-1.46,1.22c0.05,0.25,0.98,0.03,1.06,0.18
  c0.19,0.35-1.66,1.4-1.57,1.7c0.02,0.08,1.43,0.04,0.99,0.63c-0.05,0.06-1.11,0.21-1.11,0.26c-0.01,0.06,0.19,0.15,0.2,0.2
  c0.03,0.16,0.26,0.64,0.35,0.8c0.28,0.5,0.84,0.16,1.03,0.45c0.02,0.02-0.45,0.31-0.47,0.35c-0.22,0.45,0.56,0.3,0.67,0.74
  c-0.98-0.33-1.12,1.2-1.81,1.47c1.45,0,0.68,2.12-0.24,1.95c-0.32-0.06-0.56-0.54-0.34-0.82c0.28-0.35,0.68-0.05,0.47,0.34
  c0.53-0.17,0.43-0.92-0.11-0.98c-0.49-0.05-0.89,0.55-1,0.95c-0.46,1.71,1.57,1.37,2.34,0.6c-0.33,1.25-0.67,2.38-1.35,3.51
  c0.3-0.16,0.68-0.11,0.91-0.45c-0.12,0.45-0.34,0.79-0.68,1.02c0.68,0.68,0.45,1.58,0.34,2.38c0.94-0.47,1.84-1.1,2.93-1.14
  c0.12,0,1.38,0.12,1.35,0.23c-0.04,0.2-0.94,0.08-1.03,0.28c-0.11,0.24,0.6,0.63,0.64,0.86c0.06,0.33-0.08,0.17-0.58,0.15
  c-0.2-0.01-0.51-0.1-0.55,0.1c-0.04,0.16,0.49,0.46,0.31,0.66c-0.12,0.14-0.56-0.14-0.72,0.02c-0.42,0.4,0.5,0.78,0.65,1
  c0.13,0.19,0.09,0.42,0.2,0.6c0.27,0.46,1.06,0.73,1.53,0.87c1.15,0.33,1.92-1.06,3.1-0.07c0.42,0.35,0.45,1.06,0.99,1.21
  c0.59,0.17,1.39-0.27,2.04-0.22c-0.35-0.61-0.39-1.21-0.97-1.62c-0.38-0.27-0.43-0.39-0.68-0.72c-0.07-0.08-0.29-0.08-0.29-0.22
  c0.02-0.51,1.66-0.43,2.15-0.49c-0.74,0.94-0.18,1.94,0.12,2.89c0.31,0.99-0.71,2.06-1.73,1.85c-1.21-0.26-1.06-1.7-1.85-2.41
  c-0.9-0.78-1.85,0.02-2.3,0.85c-0.24,0.45-0.22,0.38,0.14,0.73c0.45,0.44,0.93,0.84,1.43,1.22c1.77,1.38,3.75,2.48,5.86,3.24
  c1.54,0.55,3.14,0.92,4.76,1.07c0.39,0.04,1.03,0.17,1.42,0.08c0.44-0.11,0.24,0.05,0.4-0.37c0.11-0.3,0.08-1.46,0.44-1.57
  c0.04-0.01,0.05,0.16,0.06,0.16c0,0,0.28,0.02,0.38-0.01c0.12-0.03,0.8-0.71,0.85-0.7c0.12,0.04-0.39,0.84-0.41,0.91
  c-0.11,0.46-0.15,0.27,0.2,0.43c0.87,0.38,1.31-0.39,1.78-0.93c0.23-0.27,0.42-0.5,0.75-0.65c0.23-0.1,0.51-0.08,0.71-0.25
  c0.17-0.15,0.27-0.41,0.25-0.63c0.11,0.02,0.7-0.21,0.72-0.2c0.28,0.2-0.22,0.51-0.24,0.63c-0.02,0.16,0.07,0.19,0.1,0.37
  c0.05,0.4,0.02,1.03,0.15,1.39c0.22,0.6,0.95,0.51,1.52,0.39c0.32-0.07,0.52-0.18,0.71-0.44c0.08-0.1,0.31-1.03,0.29-1.02
  c0.08-0.03,0.31,0.27,0.46,0.25c0.26-0.03,0.45-0.38,0.35-0.61c-0.17-0.37-0.74-0.13-0.05-0.47c0.89-0.44,1.99,0.35,2.94-0.04
  c0.13-0.05,0.8-0.35,0.83-0.54c0.06-0.37-0.74-0.7-0.96-0.71c1.2-0.25,2.38-1.79,2.98-2.73c0.96-1.52,0.92-3.24,1.3-4.94
  c0.47,0.49,1.15,1.12,1.9,1c0.67-0.1,1.24-0.86,1.09-1.54c-0.24-1.09-1.58-0.71-1.73,0.25c0.3-0.38,1.07-0.43,0.84,0.24
  c-0.37,1.04-1.23-0.31-1.3-0.74c-0.05-0.35-0.03-1.16,0.23-1.41c0.26-0.24,1.02-0.22,1.37-0.34c0.49-0.16,0.95-0.39,1.38-0.69
  c0.18-0.12,0.93-0.96,1.02-0.97C201.42,23.63,197.55,23.68,198.57,22.09z M183.49,7.04c0.11-0.41,0.73-0.3,0.67,0.12
  C184.1,7.63,183.37,7.48,183.49,7.04z M185.72,0.64c0.44,0,0.44,0.69,0,0.69S185.29,0.64,185.72,0.64z M179.2,9.21
  c0.52-0.37,0.71,0.62,0.13,0.58C179.04,9.76,178.97,9.37,179.2,9.21z M179.34,6.16c-0.38-0.25,0.24-0.55,0.52-0.37
  C180.13,5.98,179.54,6.3,179.34,6.16z M179.76,4.98c-0.07,0.26-0.91,0.28-0.8-0.06C179.06,4.59,179.87,4.57,179.76,4.98z
   M171.09,23.36c0.46,0.38,0.42,0.33,0.54,0.83c0.02,0.09,0.28,0.86,0.21,0.91c-0.08,0.05-1.01-1.49-1.12-1.37
  c-0.12,0.13,0.68,0.8,0.25,1.02c-0.19,0.09-0.96-0.5-0.92-0.6c-0.08,0.19,0.68,0.74,0.46,0.96c-0.01,0.01-2.46-1.92-2.51-2.18
  c-0.01-0.03-0.01-0.04-0.02-0.05c-0.03,0.01-0.02-0.05,0,0c0.01,0,0.03-0.02,0.06-0.06c-0.07,0.12,1.83-0.83,1.72-0.83
  C170.19,21.99,170.67,23.02,171.09,23.36z M170,25.45c-0.2,0.74-0.62,0.23-1.08,0.13c-0.37-0.08-0.51-0.01-0.74-0.18
  c-0.05-0.03-0.76-0.85-0.76-0.85C167.71,24.54,170.08,25.15,170,25.45z M170.51,19.18c-0.06,0.27,0.08,0.78,0,0.99
  c-0.18,0.49-1.48,0.43-1.94,0.45c-0.8,0.03-1.33,0.1-0.56-0.62c0.31-0.29,0.76-0.55,1.2-0.41c0.1,0.03,0.24,0.29,0.29,0.3
  c0.17,0.03-0.22-0.89-0.33-0.98c-0.25-0.18-0.55-0.17-0.84-0.11c-0.07,0.02-0.52,0.28-0.6,0.24c0.12,0.06,0.6-0.95,0.69-0.98
  c0.07-0.02,0.43,0.24,0.51,0.28s0.48,0.32,0.57,0.29c0.25-0.09,0.12-0.9,0.24-0.94c-0.01,0,0.37,0.66,0.5,0.7
  c0.18,0.05,0.68-0.2,0.72-0.33C170.83,18.44,170.6,18.78,170.51,19.18z M169.64,15.41c-0.01-0.07-0.02-0.1-0.03-0.11
  c-0.04,0.02-0.02-0.02,0,0c0.02-0.01,0.05-0.04,0.11-0.1c0.13-0.14,0.66-0.25,0.82-0.35c0.37-0.22,0.67-0.63,1.1-0.73
  c-0.01,0.05-1.23,2.38-1.1,2.38c-0.17,0-0.18-0.36-0.32-0.35c-0.24,0.03-0.73,1.3-1.3,0.91c-0.06-0.04-0.13-0.88-0.15-0.88
  c0.25,0.02,0.94,0.14,1.11-0.1C170.03,15.88,169.64,15.55,169.64,15.41z M169.22,15.78c-0.18,0.16-0.46,0.01-0.44-0.23
  C168.82,15.05,169.59,15.43,169.22,15.78z M171.34,16.24c-0.03,0.09-0.07,0.42-0.14,0.47c-0.02,0.01-0.38-0.03-0.38-0.04
  c-0.06-0.09,0.06-0.22,0.09-0.35c0.09-0.43,0.4-0.96,0.61-1.35c0.08-0.15,0.17-0.48,0.39-0.45c0.1,0.01,0.34,0.18,0.29,0.28
  C171.85,15.25,171.53,15.73,171.34,16.24z M173.12,8.88c0.68-0.09,1.34-0.19,1.98-0.48c0.23-0.1,0.9-0.74,1.13-0.68
  c0.18,0.05,0.16,0.15,0.18,0.22c0.04,0.18-0.49,0.23-0.29,0.59c0.19,0.36,0.98,0.22,1.3,0.4c-0.01,0.03-2.07,0.69-2.27,0.79
  c-0.35,0.19-0.73,0.58-1.1,0.7c-0.32,0.11-0.59-0.16-0.93-0.04c0.32-0.32,0.85-0.19,1.13-0.57c-0.03,0.03-0.83,0.02-0.91,0
  c0.3-0.1,0.72-0.15,0.91-0.45c-0.03,0.04-1.06,0.2-1.21,0.1c-0.07-0.05-0.23-0.57-0.27-0.53C172.84,8.87,173.02,8.89,173.12,8.88z
   M171.22,9.77c0.2,0.07,0.49-0.08,0.66-0.18c0.04,0.12-0.4,0.53-0.41,0.69c-0.06,0.81,0.93,0.67,1.45,0.71
  c0.04,0.13-2.38,1.48-2.64,1.76c-0.31,0.34-0.14,0.63-0.31,0.94c-0.07,0.12-0.47,0.25-0.59,0.39c-0.16,0.2-0.15,0.49-0.28,0.67
  c-0.14,0.2-0.56,0.47-0.81,0.6c-0.32,0.17-0.03,0.21-0.3,0.16c-0.69-0.12-0.06-0.47,0.18-0.64c0.18-0.13,0.64-0.32,0.74-0.54
  c0.08-0.17-0.07-0.44-0.01-0.66c0.26-0.98,1.71-1.15,2.04-2c0.03-0.08-1.8,0.27-1.82,0.25c-0.36-0.23-0.24-0.92-0.95-0.53
  c-0.13,0.07-0.43,0.37-0.31,0.49c0.11,0.11,0.43-0.33,0.58,0.06c0.18,0.48-0.68,0.53-0.92,0.26c-1.1-1.21,2.85-2.43,3.51-2.75
  C171.23,9.36,171.03,9.7,171.22,9.77z M170.65,6.09c0,0.22-1.65,0.6-1.62,0.71c-0.04-0.13,0.26-0.34,0.2-0.54
  c-0.06-0.17-0.45-0.45-0.57-0.23c-0.06,0.1,0.31,0.17,0.12,0.36c-0.29,0.29-0.58-0.1-0.56-0.38C168.31,5.23,170.66,5.59,170.65,6.09
  z M163.37,16.47c-0.19-0.28,0.64-2.49,0.86-2.49c0.13,0,0.19,0.8,0.74,0.75c0.84-0.08,0.33-1.05,0.4-1.09
  c-0.05,0.04,0.07,0.28,0.01,0.35c-0.24,0.25-0.56,0.45-0.69-0.07c-0.12-0.47,0.36-0.78,0.75-0.59c0.4,0.19,0.54,1.08,0.39,1.46
  c-0.13,0.33-0.09,0.21-0.5,0.32c-0.9,0.23-1.08,0.68-1.58,1.33C163.58,16.67,163.66,16.92,163.37,16.47z M164.06,19.21
  c0.67,0.34,1.29,0.71,2.07,0.67c0.09-0.01,0.54-0.16,0.61-0.08c0.09,0.1-0.32,0.57-0.36,0.61c-0.84,0.97-1.85,0.31-2.88,0.16
  C163.83,20.12,164.17,19.78,164.06,19.21z M164.51,26.12c0.45-0.34,0.91-0.68,1.25-1.02c-0.16,0.26-0.25,0.56-0.13,0.85
  c0.03,0.08,0.43,0.56,0.49,0.49C165.53,26.46,165.08,26.23,164.51,26.12z M164.56,25.21c-0.67,0.54-1.39,0.67-1.64-0.34
  c-0.17-0.67,1.25-1.47,1.58-2.6c0.54,0.43,1.14,0.79,1.83,0.92C166.48,23.46,164.79,25.02,164.56,25.21z M166.89,30.28
  c-0.09,0.31-0.64,0.37-0.64-0.03C166.25,29.79,167.04,29.79,166.89,30.28z M166.72,15.05c-0.01,0.06,0.07,0.4,0.03,0.43
  c-0.05,0.04-0.35-0.12-0.44-0.13c0.38-1.07,0.32-2.92-1.28-2.71c1.03-1.74,3.31-3.81,5.46-3.96c0.2-0.01,0.59-0.23,0.47,0.25
  c-0.03,0.12-1.39,0.4-1.58,0.48c-0.85,0.37-2.09,1.05-2.48,1.96c-0.19,0.46-0.14,0.97,0.29,1.3c0.05,0.04,0.5,0.15,0.53,0.2
  c0.1,0.15-0.11,0.32-0.17,0.54c-0.03,0.13,0.11,0.25,0.05,0.37c-0.06,0.15-0.34,0.29-0.44,0.4
  C166.93,14.46,166.79,14.71,166.72,15.05z M167.27,31.2c-0.04-0.13,0.38-0.34,0.42-0.53c0.04-0.18-0.16-0.39-0.04-0.49
  c0.15-0.14,1.63,0.49,1.57,0.9C169.17,31.56,167.35,31.45,167.27,31.2z M170.79,30.49c-0.34-0.14-0.21-0.41-0.22-0.66
  c0,0.22-0.98,0.71-1.22,0.68c-0.14-0.02-1.99-1.17-2.06-0.95c0.16-0.53,2.1-0.26,2.42-0.21c0.2,0.03,2.25,0.34,2.19,0.64
  C171.87,30.2,170.97,30.56,170.79,30.49z M171.12,28.45c0.2-0.95,2.47,0.21,2.38,0.61C173.32,29.82,170.94,29.34,171.12,28.45z
   M175.71,28.33c-0.05,0.36-0.53,0.31-0.56-0.02C175.25,28.02,175.76,27.92,175.71,28.33z M178.91,33.89
  c-1.16,0.43-3.13,0.71-3.82-0.66c0.48-0.13,0.8-0.16,1.28-0.03c0.24,0.07,0.67,0.32,0.93,0.26c-0.34,0.08-0.16-1.51-0.16-1.49
  c-0.04-0.22-0.38-0.44-0.42-0.75c-0.02-0.11,0.12-0.66,0.02-0.74c-0.16-0.13-0.78,0.91-0.83,0.97c-0.29,0.41-0.46,0.65-0.93,0.85
  c0.06-0.59,0.31-1.47-0.21-1.93c0.86,0.03,1.77,0.01,2.61-0.21c0.67-0.17,1.54-0.55,2.07,0.12c-0.73-0.01-1.45,0.51-1.5,1.28
  c-0.06,1,0.88,1.73,1.74,1.98C179.44,33.68,179.18,33.79,178.91,33.89z M184.94,35.46c-0.02,0.04-0.05,0.48-0.05,0.48
  c-0.1,0.1,0.04,0.02-0.21,0.03c-0.55,0.03-1.16-0.95-1.52-1.31c-0.03-0.03-1-0.7-1-0.66c0.06-0.55,3,1.26,3.07,1.18
  C185.14,35.29,185.01,35.33,184.94,35.46z M184.55,30.53c0.79-1.02,1.7-1.25,2.83-1.7c-0.31,0.51-0.39,1.24-0.95,1.57
  C185.89,30.71,185.13,30.53,184.55,30.53z M185.8,35.23c0.12-0.34,0.61-0.2,0.57,0.13C186.32,35.78,185.68,35.61,185.8,35.23z
   M187.71,36.26c0.03-0.39,0.63-0.31,0.58,0.07C188.24,36.71,187.68,36.61,187.71,36.26z M188.4,33.29c-0.47,0.48-0.75,1-1.13,1.54
  c-0.18,0.25-0.04,0.3-0.29,0.28c-0.19-0.01-0.84-0.62-0.92-0.81c-0.22-0.49,0.14-0.26,0.46-0.82c0.57-0.99,0.02-2.82,1.65-2.95
  c0,0.68,0,1.47-0.34,2.15c0.22-0.17,1.78-0.53,1.8-0.58C189.47,32.52,188.7,32.98,188.4,33.29z M189.87,29.17
  c-0.23-1.25,0.34-2.26,1.02-3.28c0.07,0.14,0.9,0.76,1.01,0.6C190.77,27.02,190.77,28.38,189.87,29.17z M192.35,29.92
  c-0.1,0.28-0.29,0.34-0.35,0.05C191.88,29.43,192.43,29.67,192.35,29.92z M197.59,13.59c0.77,0.31,1.11,1.1,1.79,1.55
  c-0.49,0.06-0.88-0.2-1.2-0.54C198.06,14.47,197.49,13.75,197.59,13.59z M197.34,16.16c0.57,0.45,0.68,1.25,0.79,1.92
  c-0.57-0.57-1.36-0.68-2.04-1.13c0.23-0.23,0.52,0.06,0.78-0.01C197.05,16.9,197.34,16.5,197.34,16.16z M194.39,13.1
  c0,0.34-0.45,0.45-0.68,0.11c-0.44,1.2,1.96,0.87,1.25-0.57c0.69,0.69,1.93,1.55,1.66,2.68c-0.24,0.98-1.16,1.12-1.87,0.61
  c-0.62-0.45-1.75-1.45-1.77-2.3C192.95,12.89,194.38,12.3,194.39,13.1z M195.37,21.06c-0.47,0.15-0.64-0.48-0.18-0.57
  C195.56,20.42,195.77,20.94,195.37,21.06z M193.76,21.43c-0.28,0.33-0.94-0.15-0.58-0.49C193.48,20.67,194.04,21.1,193.76,21.43z
   M189.18,11.46c-0.52-0.7-0.95-1.53-1.3-2.33c-0.04-0.08-0.25-0.42-0.2-0.53c0.06-0.13,0.35-0.08,0.41-0.19
  c0.04-0.08-0.24-0.96-0.13-0.96c0.89,1.13,2.04,2.04,3.37,2.6c-0.32,0.32-0.89,0.33-1.08,0.79c-0.21,0.51,0.3,1.16,0.85,1.02
  c-0.27-0.18-0.66-0.81-0.16-0.98c0.64-0.21,0.77,0.8,0.58,1.16C190.95,13.14,189.65,12.09,189.18,11.46z M192.36,16.5
  c0-0.36-0.16-1.64-0.8-1.29c-0.14,0.08-0.2,0.64-0.24,0.64c0.09,0-1.6-2.67-1.65-2.58c0.05-0.09,1.13,0.04,1.16,0.03
  c0.42-0.06,0.71-0.2,0.97-0.53c0.61-0.76,0.23-1.3,0.23-2.15c0.68,0.45,1.25,0.91,1.92,1.36c-0.95-0.19-1.82,0.75-1.92,1.62
  c-0.12,1.03,0.7,1.79,1.36,2.45C193.17,16.04,192.36,16.15,192.36,16.5z M193.03,29.59c-0.14,0.33-0.41,0.14-0.48-0.08
  C192.31,28.83,193.14,29.34,193.03,29.59z M192.97,25.93c-0.49,0-0.37-0.74,0.1-0.56C193.37,25.48,193.32,25.93,192.97,25.93z
   M193.11,28.92c-0.04-0.73,0.64,0.27,0.61,0.32C193.52,29.59,193.13,29.16,193.11,28.92z M195.17,28.41
  c-0.31,0.24-0.76,0.68-1.11,0.55c-0.36-0.13-0.74-0.79-0.73-1.11c0.01-0.21,0.22-0.53,0.27-0.75c0.12-0.45,0.18-0.93,0.21-1.4
  c0.02-0.43,0.07-1.11-0.14-1.49c-0.32-0.58-0.17-0.14-0.75-0.14c0.23-1.13,1.81-0.34,2.6-1.02c-0.41,0.96-0.59,1.85-0.35,2.88
  c0.01,0.03,0.07,0.5,0.16,0.52c-0.06-0.01,1.1-0.87,1.1-0.85c0.15-0.4-0.66-0.7,0.09-0.99c0.32-0.12,0.11-0.16,0.36,0.1
  c0.11,0.11,0.46,0.62,0.41,0.79C197.01,26.59,196.01,27.77,195.17,28.41z M197.85,20.67c-0.3,0.25-0.55,0.56-0.86,0.8
  c0.35-0.93,1-1.74,1.25-2.72c0.13,0.26,0.48,1.17,0.36,1.45C198.57,20.29,197.96,20.59,197.85,20.67z M51.29,10.87
  c1.17,0,2.01,0.37,2.8,1.07c0.1,0.09,0.1,0.23,0.01,0.32L53.39,13c-0.08,0.09-0.2,0.09-0.29,0c-0.49-0.43-1.13-0.68-1.78-0.68
  c-1.48,0-2.58,1.24-2.58,2.69c0,1.44,1.11,2.67,2.59,2.67c0.69,0,1.28-0.27,1.77-0.66c0.09-0.08,0.22-0.07,0.29,0l0.72,0.74
  c0.09,0.08,0.07,0.23-0.01,0.31c-0.79,0.76-1.78,1.12-2.81,1.12c-2.31,0-4.17-1.84-4.17-4.15S48.98,10.87,51.29,10.87z M57.91,11.21
  c0-0.12,0.1-0.22,0.22-0.22h1.07c0.12,0,0.22,0.1,0.22,0.22v7.65c0,0.12-0.1,0.22-0.22,0.22h-1.07c-0.12,0-0.22-0.1-0.22-0.22
  C57.91,18.86,57.91,11.21,57.91,11.21z M64.93,12.37h-1.77c-0.13,0-0.22-0.1-0.22-0.22V11.2c0-0.12,0.09-0.22,0.22-0.22h5.05
  c0.13,0,0.22,0.1,0.22,0.22v0.95c0,0.12-0.09,0.22-0.22,0.22h-1.77v6.48c0,0.12-0.1,0.22-0.22,0.22h-1.07
  c-0.12,0-0.22-0.1-0.22-0.22C64.93,18.85,64.93,12.37,64.93,12.37z M71.94,11.21c0-0.12,0.1-0.22,0.22-0.22h1.07
  c0.12,0,0.22,0.1,0.22,0.22v7.65c0,0.12-0.1,0.22-0.22,0.22h-1.07c-0.12,0-0.22-0.1-0.22-0.22C71.94,18.86,71.94,11.21,71.94,11.21z
   M77.1,18.65l3.44-6.21v-0.05h-2.89c-0.12,0-0.22-0.1-0.22-0.22v-0.96c0-0.12,0.1-0.22,0.22-0.22h4.83c0.12,0,0.22,0.1,0.22,0.22
  v0.15l-3.4,6.3v0.02h2.95c0.13,0,0.22,0.1,0.22,0.22v0.96c0,0.12-0.09,0.22-0.22,0.22h-4.93c-0.12,0-0.22-0.1-0.22-0.22
  C77.1,18.86,77.1,18.65,77.1,18.65z M86.37,11.21c0-0.12,0.09-0.22,0.22-0.22h4.7c0.13,0,0.22,0.1,0.22,0.22v0.95
  c0,0.12-0.09,0.22-0.22,0.22h-3.42v1.89h2.85c0.12,0,0.22,0.1,0.22,0.22v0.96c0,0.13-0.1,0.22-0.22,0.22h-2.85v2.02h3.42
  c0.13,0,0.22,0.1,0.22,0.22v0.95c0,0.12-0.09,0.22-0.22,0.22h-4.7c-0.13,0-0.22-0.1-0.22-0.22C86.37,18.86,86.37,11.21,86.37,11.21z
   M95.47,11.08c0-0.12,0.1-0.21,0.22-0.21h0.29l4.81,5.11h0.01v-4.77c0-0.12,0.09-0.22,0.22-0.22h1.06c0.12,0,0.22,0.1,0.22,0.22
  v7.77c0,0.12-0.1,0.21-0.22,0.21h-0.28l-4.83-5.3h-0.01v4.97c0,0.12-0.09,0.22-0.22,0.22h-1.05c-0.12,0-0.22-0.1-0.22-0.22
  C95.47,18.86,95.47,11.08,95.47,11.08z M106.23,17.94l0.42-0.72c0.09-0.16,0.29-0.16,0.39-0.08c0.06,0.03,0.99,0.72,1.74,0.72
  c0.6,0,1.05-0.39,1.05-0.89c0-0.59-0.5-0.99-1.47-1.39c-1.09-0.44-2.17-1.13-2.17-2.5c0-1.03,0.76-2.22,2.6-2.22
  c1.18,0,2.08,0.6,2.31,0.77c0.12,0.07,0.15,0.27,0.07,0.38l-0.44,0.66c-0.09,0.14-0.27,0.23-0.4,0.14
  c-0.09-0.06-0.97-0.64-1.61-0.64c-0.66,0-1.02,0.44-1.02,0.81c0,0.54,0.43,0.91,1.36,1.29c1.12,0.45,2.41,1.12,2.41,2.61
  c0,1.19-1.03,2.29-2.66,2.29c-1.46,0-2.31-0.68-2.54-0.9C106.18,18.19,106.12,18.13,106.23,17.94z M122.19,13.36
  c1.61,0,2.9,1.3,2.9,2.91c0,1.61-1.29,2.89-2.9,2.89s-2.89-1.28-2.89-2.89S120.58,13.36,122.19,13.36z M122.19,18.35
  c1.15,0,2.09-0.93,2.09-2.09c0-1.14-0.94-2.1-2.09-2.1c-1.14,0-2.09,0.96-2.09,2.1C120.11,17.42,121.05,18.35,122.19,18.35z
   M127.85,13.59c0-0.08,0.06-0.15,0.15-0.15h3.22c0.09,0,0.15,0.07,0.15,0.15v0.45c0,0.08-0.06,0.15-0.15,0.15h-2.54v1.86h2.15
  c0.08,0,0.15,0.07,0.15,0.15v0.44c0,0.08-0.07,0.15-0.15,0.15h-2.15v2.12c0,0.08-0.07,0.15-0.15,0.15h-0.52
  c-0.09,0-0.15-0.07-0.15-0.15v-5.32H127.85z M138.16,14.2h-1.31c-0.09,0-0.15-0.07-0.15-0.15V13.6c0-0.08,0.06-0.15,0.15-0.15h3.46
  c0.09,0,0.15,0.07,0.15,0.15v0.45c0,0.08-0.06,0.15-0.15,0.15H139v4.73c0,0.08-0.07,0.15-0.15,0.15h-0.53
  c-0.08,0-0.15-0.07-0.15-0.15V14.2H138.16z M142.94,13.59c0-0.08,0.07-0.15,0.15-0.15h0.53c0.09,0,0.15,0.07,0.15,0.15v2.25h2.95
  v-2.25c0-0.08,0.06-0.15,0.15-0.15h0.53c0.08,0,0.15,0.07,0.15,0.15v5.33c0,0.08-0.07,0.15-0.15,0.15h-0.53
  c-0.09,0-0.15-0.07-0.15-0.15v-2.33h-2.95v2.33c0,0.08-0.06,0.15-0.15,0.15h-0.53c-0.08,0-0.15-0.07-0.15-0.15V13.59z M150.56,13.59
  c0-0.08,0.06-0.15,0.15-0.15h3.22c0.09,0,0.15,0.07,0.15,0.15v0.45c0,0.08-0.06,0.15-0.15,0.15h-2.54v1.64h2.15
  c0.08,0,0.15,0.07,0.15,0.15v0.45c0,0.09-0.07,0.15-0.15,0.15h-2.15v1.73h2.54c0.09,0,0.15,0.07,0.15,0.15v0.44
  c0,0.08-0.06,0.15-0.15,0.15h-3.22c-0.09,0-0.15-0.07-0.15-0.15V13.59z M4.14,24.97c1.04,0,2.03,0.4,2.82,1.07
  c0.09,0.09,0.1,0.23,0.01,0.32l-0.72,0.75c-0.09,0.09-0.2,0.09-0.3,0c-0.5-0.44-1.11-0.67-1.74-0.67c-1.44,0-2.59,1.24-2.59,2.68
  c0,1.43,1.14,2.65,2.6,2.65c0.65,0,1.14-0.2,1.37-0.29V30.5H4.67c-0.13,0-0.22-0.09-0.22-0.21v-0.91c0-0.13,0.09-0.22,0.22-0.22
  h2.22c0.12,0,0.21,0.1,0.21,0.22v2.96c0,0.09-0.05,0.15-0.09,0.18c0,0-1.19,0.75-2.86,0.75c-2.3,0-4.15-1.83-4.15-4.14
  S1.84,24.97,4.14,24.97z M11.1,25.31c0-0.12,0.09-0.22,0.22-0.22h3.3c1.39,0,2.52,1.11,2.52,2.48c0,1.06-0.7,1.93-1.71,2.33
  l1.58,2.93c0.08,0.15,0,0.34-0.2,0.34H15.6c-0.1,0-0.16-0.06-0.18-0.1l-1.54-3.06H12.6v2.95c0,0.12-0.1,0.22-0.22,0.22h-1.06
  c-0.13,0-0.22-0.1-0.22-0.22V25.31z M14.5,28.78c0.61,0,1.14-0.53,1.14-1.18c0-0.61-0.53-1.12-1.14-1.12h-1.88v2.3
  C12.62,28.78,14.5,28.78,14.5,28.78z M21.1,25.31c0-0.12,0.09-0.22,0.22-0.22h4.7c0.13,0,0.22,0.1,0.22,0.22v0.95
  c0,0.12-0.09,0.22-0.22,0.22H22.6v1.89h2.85c0.12,0,0.22,0.1,0.22,0.22v0.96c0,0.13-0.1,0.22-0.22,0.22H22.6v2.02h3.42
  c0.13,0,0.22,0.1,0.22,0.22v0.95c0,0.12-0.09,0.22-0.22,0.22h-4.7c-0.13,0-0.22-0.1-0.22-0.22V25.31z M29.14,32.88l3.59-7.77
  c0.03-0.07,0.09-0.13,0.2-0.13h0.12c0.12,0,0.16,0.06,0.2,0.13l3.56,7.77c0.07,0.15-0.02,0.3-0.2,0.3h-1
  c-0.17,0-0.25-0.07-0.34-0.23L34.7,31.7h-3.46l-0.57,1.25c-0.05,0.12-0.15,0.23-0.33,0.23h-1C29.16,33.18,29.07,33.03,29.14,32.88z
   M34.13,30.42l-1.16-2.54h-0.03l-1.13,2.54H34.13z M40.81,26.48h-1.77c-0.13,0-0.22-0.1-0.22-0.22v-0.95c0-0.12,0.09-0.22,0.22-0.22
  h5.05c0.13,0,0.22,0.1,0.22,0.22v0.95c0,0.12-0.09,0.22-0.22,0.22h-1.77v6.48c0,0.12-0.1,0.22-0.22,0.22h-1.07
  c-0.12,0-0.22-0.1-0.22-0.22C40.81,32.96,40.81,26.48,40.81,26.48z M52.19,25.31c0-0.12,0.09-0.22,0.22-0.22h2.65
  c1.37,0,2.44,0.92,2.44,2.14c0,0.89-0.73,1.58-1.27,1.84c0.61,0.2,1.5,0.82,1.5,1.88c0,1.29-1.11,2.23-2.52,2.23h-2.8
  c-0.13,0-0.22-0.1-0.22-0.22C52.19,32.96,52.19,25.31,52.19,25.31z M54.92,28.49c0.59,0,0.99-0.46,0.99-1.04
  c0-0.58-0.4-0.98-0.99-0.98h-1.24v2.02H54.92z M55.08,31.81c0.58,0,1.04-0.45,1.04-1.05c0-0.58-0.58-1-1.18-1h-1.26v2.06h1.4V31.81z
   M60.58,32.88l3.59-7.77c0.03-0.07,0.09-0.13,0.2-0.13h0.12c0.12,0,0.16,0.06,0.2,0.13l3.56,7.77c0.07,0.15-0.02,0.3-0.2,0.3h-1
  c-0.17,0-0.25-0.07-0.34-0.23l-0.57-1.25h-3.45l-0.57,1.25c-0.05,0.12-0.15,0.23-0.33,0.23h-1.01
  C60.6,33.18,60.51,33.03,60.58,32.88z M65.57,30.42l-1.16-2.54h-0.03l-1.13,2.54H65.57z M71.6,25.31c0-0.12,0.09-0.22,0.22-0.22h3.3
  c1.39,0,2.52,1.11,2.52,2.48c0,1.06-0.7,1.93-1.71,2.33l1.58,2.93c0.08,0.15,0,0.34-0.2,0.34H76.1c-0.1,0-0.16-0.06-0.18-0.1
  l-1.54-3.06H73.1v2.95c0,0.12-0.1,0.22-0.22,0.22h-1.06c-0.13,0-0.22-0.1-0.22-0.22C71.6,32.96,71.6,25.31,71.6,25.31z M74.99,28.78
  c0.61,0,1.14-0.53,1.14-1.18c0-0.61-0.53-1.12-1.14-1.12h-1.88v2.3C73.11,28.78,74.99,28.78,74.99,28.78z M81.6,25.31
  c0-0.12,0.09-0.22,0.22-0.22h3.3c1.39,0,2.52,1.11,2.52,2.48c0,1.06-0.7,1.93-1.71,2.33l1.58,2.93c0.08,0.15,0,0.34-0.2,0.34H86.1
  c-0.1,0-0.16-0.06-0.18-0.1l-1.54-3.06H83.1v2.95c0,0.12-0.1,0.22-0.22,0.22h-1.06c-0.13,0-0.22-0.1-0.22-0.22L81.6,25.31
  L81.6,25.31z M85,28.78c0.61,0,1.14-0.53,1.14-1.18c0-0.61-0.53-1.12-1.14-1.12h-1.88v2.3C83.12,28.78,85,28.78,85,28.78z
   M91.6,25.31c0-0.12,0.1-0.22,0.22-0.22h1.07c0.12,0,0.22,0.1,0.22,0.22v7.65c0,0.12-0.1,0.22-0.22,0.22h-1.07
  c-0.12,0-0.22-0.1-0.22-0.22C91.6,32.96,91.6,25.31,91.6,25.31z M97.53,25.31c0-0.12,0.09-0.22,0.22-0.22h4.7
  c0.13,0,0.22,0.1,0.22,0.22v0.95c0,0.12-0.09,0.22-0.22,0.22h-3.42v1.89h2.85c0.12,0,0.22,0.1,0.22,0.22v0.96
  c0,0.13-0.1,0.22-0.22,0.22h-2.85v2.02h3.42c0.13,0,0.22,0.1,0.22,0.22v0.95c0,0.12-0.09,0.22-0.22,0.22h-4.7
  c-0.13,0-0.22-0.1-0.22-0.22C97.53,32.96,97.53,25.31,97.53,25.31z M106.62,25.31c0-0.12,0.09-0.22,0.22-0.22h3.3
  c1.39,0,2.52,1.11,2.52,2.48c0,1.06-0.7,1.93-1.71,2.33l1.58,2.93c0.08,0.15,0,0.34-0.2,0.34h-1.21c-0.1,0-0.16-0.06-0.18-0.1
  l-1.54-3.06h-1.28v2.95c0,0.12-0.1,0.22-0.22,0.22h-1.06c-0.13,0-0.22-0.1-0.22-0.22L106.62,25.31L106.62,25.31z M110.01,28.78
  c0.61,0,1.14-0.53,1.14-1.18c0-0.61-0.53-1.12-1.14-1.12h-1.88v2.3C108.13,28.78,110.01,28.78,110.01,28.78z M120.74,25.31
  c0-0.12,0.09-0.22,0.22-0.22h3.3c1.39,0,2.52,1.11,2.52,2.48c0,1.06-0.7,1.93-1.71,2.33l1.58,2.93c0.08,0.15,0,0.34-0.2,0.34h-1.21
  c-0.1,0-0.16-0.06-0.18-0.1l-1.54-3.06h-1.28v2.95c0,0.12-0.1,0.22-0.22,0.22h-1.06c-0.13,0-0.22-0.1-0.22-0.22L120.74,25.31
  L120.74,25.31z M124.13,28.78c0.61,0,1.14-0.53,1.14-1.18c0-0.61-0.53-1.12-1.14-1.12h-1.88v2.3
  C122.25,28.78,124.13,28.78,124.13,28.78z M130.74,25.31c0-0.12,0.09-0.22,0.22-0.22h4.7c0.13,0,0.22,0.1,0.22,0.22v0.95
  c0,0.12-0.09,0.22-0.22,0.22h-3.42v1.89h2.85c0.12,0,0.22,0.1,0.22,0.22v0.96c0,0.13-0.1,0.22-0.22,0.22h-2.85v2.02h3.42
  c0.13,0,0.22,0.1,0.22,0.22v0.95c0,0.12-0.09,0.22-0.22,0.22h-4.7c-0.13,0-0.22-0.1-0.22-0.22
  C130.74,32.96,130.74,25.31,130.74,25.31z M139.84,25.31c0-0.12,0.09-0.22,0.22-0.22h4.7c0.13,0,0.22,0.1,0.22,0.22v0.95
  c0,0.12-0.09,0.22-0.22,0.22h-3.42v1.89h2.85c0.12,0,0.22,0.1,0.22,0.22v0.96c0,0.13-0.1,0.22-0.22,0.22h-2.85v2.02h3.42
  c0.13,0,0.22,0.1,0.22,0.22v0.95c0,0.12-0.09,0.22-0.22,0.22h-4.7c-0.13,0-0.22-0.1-0.22-0.22
  C139.84,32.96,139.84,25.31,139.84,25.31z M148.94,25.31c0-0.12,0.09-0.22,0.22-0.22h4.7c0.13,0,0.22,0.1,0.22,0.22v0.95
  c0,0.12-0.09,0.22-0.22,0.22h-3.42v2.17h2.85c0.12,0,0.22,0.1,0.22,0.22v0.95c0,0.12-0.1,0.22-0.22,0.22h-2.85v2.92
  c0,0.12-0.1,0.22-0.22,0.22h-1.06c-0.13,0-0.22-0.1-0.22-0.22C148.94,32.96,148.94,25.31,148.94,25.31z"/>
</svg>
