<svg xmlns="http://www.w3.org/2000/svg" width="43" height="38.96" viewBox="0 0 43 38.96">
  <defs>
    <style>
      .a {
        fill: #87d0f7;
      }

      .b {
        fill: #003556;
        fill-rule: evenodd;
      }
    </style>
  </defs>
  <circle class="a" cx="28" cy="20" r="15"/>
  <path class="b" d="M12.81,39,14,31.09l2.08,1.05.67-1.34L6.29,25.54C5.21,25,5.21,24.73,5.21,24a.61.61,0,0,1,.31-.53,3,3,0,0,1,2.42-.25l1.55.58L9,25.22l1.42.48.48-1.42,3,1.14h0l2.25.75.47-1.42L15,24.18V21.44l1.91,1,.67-1.34-7.12-3.57-.7-6.37a1.45,1.45,0,0,1,.35-1.32A1,1,0,0,1,11,9.7c.92.31,1,.73,1,.91l.68,4.12L11.43,16,12.49,17l1.45-1.44,2.18-1.46a.67.67,0,0,0,.28-.34L17.91,10l0-.1a2.58,2.58,0,0,1,1.7-1.7,1.41,1.41,0,0,1,.95.08L18.93,10,20,11l1.57-1.57A3.06,3.06,0,0,1,21.74,11l-2.13,3.53L17.42,16.7l1.06,1.06,1-1v6.64L17.71,24l.47,1.43L25,23.18a1.82,1.82,0,0,1,1.61,0,.84.84,0,0,1,.36.78c0,.68,0,1-1.15,1.61L22.9,27.39l-1.55-1-.83,1.25,1,.66-1.72,1.07a.76.76,0,0,0-.36.64v9m1.5,0V30.39l5.58-3.48c1.92-1,1.92-2.1,1.92-2.92a2.37,2.37,0,0,0-1-2,3.23,3.23,0,0,0-3-.19l-3.51,1.17V15.2l2.14-3.57a.64.64,0,0,0,.1-.24,4.26,4.26,0,0,0-1.12-3.87,2.91,2.91,0,0,0-2.79-.75A4.07,4.07,0,0,0,16.5,9.51L15.1,13,14,13.72l-.55-3.33a2.56,2.56,0,0,0-2-2.11,2.37,2.37,0,0,0-2.36.37,2.82,2.82,0,0,0-.87,2.66L9,18.05a.73.73,0,0,0,.41.59l4.07,2.05v2.95l-5-1.89a4.58,4.58,0,0,0-3.8.45A2.14,2.14,0,0,0,3.71,24c0,1.11.14,2,1.91,2.92l7,3.51L11.29,39h1.52"/>
  <polygon class="b" points="14.93 35.95 16.43 35.96 16.43 37.45 14.93 37.45 14.93 35.95"/>
  <polygon class="b" points="16.43 32.96 17.93 32.96 17.93 34.46 16.43 34.46 16.43 32.96"/>
  <polygon class="b" points="17.19 26.97 18.69 26.97 18.69 28.47 17.19 28.47 17.19 26.97"/>
  <polygon class="b" points="14.96 16.48 16.45 16.48 16.45 17.98 14.95 17.98 14.96 16.48"/>
  <path class="b" d="M27.69,15.75A2.25,2.25,0,1,1,29.93,18a2.25,2.25,0,0,1-2.24-2.25m6,0a3.75,3.75,0,1,0-3.75,3.74,3.74,3.74,0,0,0,3.75-3.74"/>
  <path class="b" d="M12.73,1.5a.75.75,0,1,1-.75.75.75.75,0,0,1,.75-.75m0,3a2.25,2.25,0,1,0-2.24-2.25,2.24,2.24,0,0,0,2.24,2.25"/>
  <path class="b" d="M1.55,17.74a1.49,1.49,0,0,1,1.82-1.07,1.5,1.5,0,1,1-1.82,1.07M5.9,18.87A3,3,0,1,0,2.24,21,3,3,0,0,0,5.9,18.87"/>
</svg>
