<svg xmlns="http://www.w3.org/2000/svg" width="39.79" height="31" viewBox="0 0 39.79 31">
  <defs>
    <style>
      .a {
        fill: #ffeab6;
      }

      .b {
        fill: #236f95;
        fill-rule: evenodd;
      }

      .c {
        fill: none;
        stroke: #246f95;
        stroke-linecap: round;
        stroke-width: 2px;
      }
    </style>
  </defs>
  <circle class="a" cx="24.43" cy="16" r="15"/>
  <polygon class="b" points="6.87 11.94 5.52 14.02 7.6 15.37 6.25 17.46 4.17 16.11 2.82 18.19 0.74 16.84 2.08 14.76 0 13.41 1.35 11.33 3.43 12.68 4.78 10.59 6.87 11.94"/>
  <polygon class="b" points="34.21 11.61 32.86 13.69 34.94 15.04 33.59 17.12 31.51 15.77 30.16 17.86 28.08 16.51 29.42 14.42 27.34 13.08 28.69 10.99 30.77 12.34 32.12 10.26 34.21 11.61"/>
  <polygon class="b" points="17.22 22.99 15.13 21.64 13.79 23.72 15.87 25.07 14.52 27.16 16.61 28.5 17.96 26.42 20.04 27.77 21.39 25.68 19.3 24.34 20.65 22.25 18.57 20.9 17.22 22.99"/>
  <path class="c" d="M1.2,1.63A7.1,7.1,0,0,1,4.12,1c5.34,0,6.51,7.14,14,7.14S26,1.23,33.59,1.23a8.32,8.32,0,0,1,5.2,1.62"/>
</svg>
