<svg xmlns="http://www.w3.org/2000/svg" width="60" height="238" viewBox="0 0 60 238">
  <defs>
    <style>
      .a {
        fill: #1a1a1a;
      }

      .a, .c {
        fill-rule: evenodd;
      }

      .b {
        fill: #ffc3ac;
      }

      .c {
        fill: #fff;
        stroke: #e6e6e6;
      }

      .d {
        fill: #262626;
      }
    </style>
  </defs>
  <g>
    <g>
      <path class="a" d="M30,89h0a30,30,0,0,1,30,30h0a30,30,0,0,1-30,30h0A30,30,0,0,1,0,119H0A30,30,0,0,1,30,89Z" transform="translate(0 0)"/>
      <path class="b" d="M34.68,108.41,20,123.14a1.11,1.11,0,0,0-.29.48l-1.63,6a1,1,0,0,0,0,.58,1.09,1.09,0,0,0,1.34.76l6-1.63a1.15,1.15,0,0,0,.48-.29l14.73-14.72a4.18,4.18,0,0,0-5.91-5.91ZM36.23,110a2,2,0,0,1,2.82,2.82L24.52,127.3l-2.82-2.82Z" transform="translate(0 0)"/>
    </g>
    <g>
      <path class="c" d="M30,.5h0A29.5,29.5,0,0,1,59.5,30h0A29.5,29.5,0,0,1,30,59.5h0A29.5,29.5,0,0,1,.5,30h0A29.5,29.5,0,0,1,30,.5Z" transform="translate(0 0)"/>
      <path class="d" d="M28.91,21.72v7.19H21.72l1.41-1.41A1.09,1.09,0,0,0,21.59,26l-3.27,3.27A1.08,1.08,0,0,0,18,30a1.16,1.16,0,0,0,.08.42,1,1,0,0,0,.24.35L21.59,34a1.09,1.09,0,0,0,1.54-1.54l-1.41-1.41h7.19v7.19L27.5,36.87A1.09,1.09,0,0,0,26,38.41l3.27,3.27a1,1,0,0,0,.35.24A1.16,1.16,0,0,0,30,42a1.25,1.25,0,0,0,.42-.08,1,1,0,0,0,.35-.24L34,38.41a1.09,1.09,0,0,0-1.54-1.54l-1.41,1.41V31.09h7.19L36.87,32.5A1.09,1.09,0,0,0,38.41,34l3.27-3.27a1,1,0,0,0,.24-.35,1.1,1.1,0,0,0-.24-1.19L38.41,26a1.09,1.09,0,0,0-1.54,1.54l1.41,1.41H31.09V21.72l1.41,1.41A1.09,1.09,0,0,0,34,21.59l-3.27-3.27a1.21,1.21,0,0,0-.35-.24,1.11,1.11,0,0,0-.84,0,1,1,0,0,0-.35.24L26,21.59a1.09,1.09,0,0,0,1.54,1.54Z" transform="translate(0 0)"/>
    </g>
    <g>
      <path class="c" d="M30,178.5h0A29.5,29.5,0,0,1,59.5,208h0A29.5,29.5,0,0,1,30,237.5h0A29.5,29.5,0,0,1,.5,208h0A29.5,29.5,0,0,1,30,178.5Z" transform="translate(0 0)"/>
      <path class="d" d="M34.85,212.63l-.12.1-.1.12a8.4,8.4,0,1,1,.22-.22Zm6.8,5.32-4.41-4.41a10.8,10.8,0,1,0-1.7,1.7L40,219.65a1.2,1.2,0,1,0,1.7-1.7ZM25.2,208h2.4v2.4a1.2,1.2,0,0,0,2.4,0V208h2.4a1.2,1.2,0,0,0,0-2.4H30v-2.4a1.2,1.2,0,0,0-2.4,0v2.4H25.2a1.2,1.2,0,0,0,0,2.4Z" transform="translate(0 0)"/>
    </g>
  </g>
</svg>
