<svg xmlns="http://www.w3.org/2000/svg" width="30" height="30" viewBox="0 0 30 30">
  <defs>
    <style>
      .a {
        fill: #ffb9cd;
      }

      .b {
        isolation: isolate;
      }

      .c {
        fill: #246f95;
      }
    </style>
  </defs>
  <circle class="a" cx="15" cy="15" r="15"/>
  <g class="b">
    <path class="c" d="M18,10a3.2,3.2,0,0,1,1,2.53,2.9,2.9,0,0,1-1,2.34,3.91,3.91,0,0,1-2.6.86L15.38,17H13l-.08-3h1a4.59,4.59,0,0,0,1.88-.3,1.1,1.1,0,0,0,.65-1.11,1.25,1.25,0,0,0-.3-.88,1.13,1.13,0,0,0-.85-.32,1.22,1.22,0,0,0-.9.33,1.24,1.24,0,0,0-.32.89H11.45a3.25,3.25,0,0,1,.41-1.76A3.09,3.09,0,0,1,13.17,9.6a4.52,4.52,0,0,1,2.1-.46A4,4,0,0,1,18,10ZM13,20.7a1.38,1.38,0,0,1-.46-1A1.45,1.45,0,0,1,13,18.58a1.81,1.81,0,0,1,2.34,0,1.44,1.44,0,0,1,.45,1.08,1.37,1.37,0,0,1-.45,1,1.81,1.81,0,0,1-2.34,0Z"/>
  </g>
</svg>
