<?xml version="1.0" encoding="utf-8"?>
<!-- Generator: Adobe Illustrator 25.0.0, SVG Export Plug-In . SVG Version: 6.00 Build 0)  -->
<svg version="1.1" id="Layer_1" xmlns="http://www.w3.org/2000/svg" xmlns:xlink="http://www.w3.org/1999/xlink" x="0px" y="0px"
	 viewBox="0 0 80 80" style="enable-background:new 0 0 80 80;" xml:space="preserve">
<style type="text/css">
	.st0{fill-rule:evenodd;clip-rule:evenodd;fill:#FFFFFF;stroke:#E6E6E6;}
</style>
<path class="st0" d="M40,0.5L40,0.5C18.2,0.5,0.5,18.2,0.5,40l0,0c0,21.8,17.7,39.5,39.5,39.5l0,0c21.8,0,39.5-17.7,39.5-39.5l0,0
	C79.5,18.2,61.8,0.5,40,0.5z"/>
<path d="M52.8,44.3c-1.3,3.5-3.8,6.3-7,7.8c-3.1,1.5-6.9,1.8-10.4,0.6c-3.6-1.2-6.3-3.8-7.8-7c-1.5-3.1-1.8-6.9-0.6-10.4
	c1.2-3.6,3.8-6.3,7-7.8c3.1-1.5,6.9-1.8,10.4-0.6c2,0.7,3.8,1.8,5.1,3.2l4,3.8v-5c0-0.8,0.6-1.4,1.4-1.4s1.4,0.6,1.4,1.4V37l0,0.1
	c0,0.2,0,0.3-0.1,0.4c-0.1,0.1-0.1,0.3-0.2,0.4L55.9,38c-0.1,0.1-0.3,0.2-0.4,0.3c-0.2,0.1-0.3,0.1-0.5,0.1h-8.2
	c-0.8,0-1.4-0.6-1.4-1.4c0-0.8,0.6-1.4,1.4-1.4h4.7L47.6,32c-1.1-1.1-2.5-2-4.1-2.6c-2.8-1-5.8-0.8-8.3,0.5
	c-2.5,1.2-4.6,3.4-5.6,6.2c-1,2.8-0.8,5.8,0.5,8.3s3.4,4.6,6.2,5.6c2.8,1,5.8,0.8,8.3-0.5c2.5-1.2,4.6-3.4,5.6-6.2
	c0.2-0.7,1-1.1,1.7-0.8C52.6,42.8,53,43.6,52.8,44.3z"/>
</svg>
